<mxfile host="65bd71144e">
    <diagram id="8UD5d60HDsAUgDDDRMJ2" name="Page-1">
        <mxGraphModel dx="1225" dy="632" grid="1" gridSize="10" guides="1" tooltips="1" connect="1" arrows="1" fold="1" page="1" pageScale="1" pageWidth="850" pageHeight="1100" math="0" shadow="0">
            <root>
                <mxCell id="0"/>
                <mxCell id="1" parent="0"/>
                <mxCell id="2" value="&lt;div&gt;&lt;b&gt;@base&lt;/b&gt;: http://usage-project.eu/ld/ontology#&lt;/div&gt;&lt;div&gt;&lt;b style=&quot;background-color: initial;&quot;&gt;rr&lt;/b&gt;&lt;span style=&quot;background-color: initial;&quot;&gt;: http://www.w3.org/ns/r2rml#&lt;/span&gt;&lt;br&gt;&lt;/div&gt;&lt;div&gt;&lt;div style=&quot;border-color: var(--border-color);&quot;&gt;&lt;b&gt;rml&lt;/b&gt;: http://semweb.mmlab.be/ns/rml#&lt;/div&gt;&lt;div style=&quot;border-color: var(--border-color);&quot;&gt;&lt;div style=&quot;line-height: 19px;&quot;&gt;&lt;div style=&quot;&quot;&gt;&lt;b&gt;ql&lt;/b&gt;: http://semweb.mmlab.be/ns/ql#&lt;/div&gt;&lt;div style=&quot;&quot;&gt;&lt;/div&gt;&lt;/div&gt;&lt;/div&gt;&lt;div style=&quot;border-color: var(--border-color);&quot;&gt;&lt;b&gt;rdf&lt;/b&gt;: http://www.w3.org/1999/02/22-rdf-syntax-ns#&lt;/div&gt;&lt;div style=&quot;border-color: var(--border-color);&quot;&gt;&lt;b&gt;rdfs&lt;/b&gt;: http://www.w3.org/2000/01/rdf-schema#&lt;/div&gt;&lt;div style=&quot;border-color: var(--border-color);&quot;&gt;&lt;span style=&quot;background-color: initial;&quot;&gt;&lt;b&gt;owl&lt;/b&gt;: http://www.w3.org/2002/07/owl#&lt;/span&gt;&lt;br&gt;&lt;/div&gt;&lt;div style=&quot;border-color: var(--border-color);&quot;&gt;&lt;b&gt;skos&lt;/b&gt;: http://www.w3.org/2004/02/skos/core#&lt;/div&gt;&lt;div style=&quot;border-color: var(--border-color);&quot;&gt;&lt;b&gt;xml&lt;/b&gt;: http://www.w3.org/XML/1998/namespace&lt;/div&gt;&lt;div style=&quot;border-color: var(--border-color);&quot;&gt;&lt;b&gt;xsd&lt;/b&gt;: http://www.w3.org/2001/XMLSchema#&lt;/div&gt;&lt;div style=&quot;border-color: var(--border-color);&quot;&gt;&lt;span style=&quot;background-color: initial;&quot;&gt;&lt;b&gt;wgs&lt;/b&gt;: http://www.w3.org/2003/01/geo/wgs84_pos#&lt;/span&gt;&lt;br&gt;&lt;/div&gt;&lt;div style=&quot;border-color: var(--border-color);&quot;&gt;&lt;b style=&quot;background-color: initial;&quot;&gt;geo&lt;/b&gt;&lt;span style=&quot;background-color: initial;&quot;&gt;: http://www.opengis.net/ont/geosparql#&lt;/span&gt;&lt;br&gt;&lt;/div&gt;&lt;div style=&quot;border-color: var(--border-color);&quot;&gt;&lt;div style=&quot;border-color: var(--border-color);&quot;&gt;&lt;b style=&quot;border-color: var(--border-color);&quot;&gt;usage-o&lt;/b&gt;: http://usage-project.eu/ld/ontology#&lt;/div&gt;&lt;/div&gt;&lt;div style=&quot;border-color: var(--border-color);&quot;&gt;&lt;span style=&quot;background-color: initial;&quot;&gt;&lt;b&gt;usage-g&lt;/b&gt;: http://usage-project.eu/ld/graph/&lt;/span&gt;&lt;br&gt;&lt;/div&gt;&lt;/div&gt;" style="shape=note;whiteSpace=wrap;html=1;backgroundOutline=1;darkOpacity=0.05;" parent="1" vertex="1">
                    <mxGeometry x="20" y="20" width="340" height="220" as="geometry"/>
                </mxCell>
                <mxCell id="45" value="geo:asWKT: geo:wktLiteral" style="rounded=0;whiteSpace=wrap;html=1;snapToPoint=1;points=[[0.1,0],[0.2,0],[0.3,0],[0.4,0],[0.5,0],[0.6,0],[0.7,0],[0.8,0],[0.9,0],[0,0.1],[0,0.3],[0,0.5],[0,0.7],[0,0.9],[0.1,1],[0.2,1],[0.3,1],[0.4,1],[0.5,1],[0.6,1],[0.7,1],[0.8,1],[0.9,1],[1,0.1],[1,0.3],[1,0.5],[1,0.7],[1,0.9]];" parent="1" vertex="1">
                    <mxGeometry x="795" y="289.9999999999999" width="179" height="30" as="geometry"/>
                </mxCell>
                <mxCell id="46" value="geo:Geometry" style="rounded=0;whiteSpace=wrap;html=1;snapToPoint=1;points=[[0.1,0],[0.2,0],[0.3,0],[0.4,0],[0.5,0],[0.6,0],[0.7,0],[0.8,0],[0.9,0],[0,0.1],[0,0.3],[0,0.5],[0,0.7],[0,0.9],[0.1,1],[0.2,1],[0.3,1],[0.4,1],[0.5,1],[0.6,1],[0.7,1],[0.8,1],[0.9,1],[1,0.1],[1,0.3],[1,0.5],[1,0.7],[1,0.9]];" parent="1" vertex="1">
                    <mxGeometry x="795" y="259.9999999999999" width="179" height="30" as="geometry"/>
                </mxCell>
                <mxCell id="48" value="geo:Feature" style="rounded=0;whiteSpace=wrap;html=1;snapToPoint=1;points=[[0.1,0],[0.2,0],[0.3,0],[0.4,0],[0.5,0],[0.6,0],[0.7,0],[0.8,0],[0.9,0],[0,0.1],[0,0.3],[0,0.5],[0,0.7],[0,0.9],[0.1,1],[0.2,1],[0.3,1],[0.4,1],[0.5,1],[0.6,1],[0.7,1],[0.8,1],[0.9,1],[1,0.1],[1,0.3],[1,0.5],[1,0.7],[1,0.9]];" parent="1" vertex="1">
                    <mxGeometry x="495" y="260" width="130" height="30" as="geometry"/>
                </mxCell>
                <mxCell id="49" value="s4city:KeyPerformanceIndicator" style="rounded=0;whiteSpace=wrap;html=1;snapToPoint=1;points=[[0.1,0],[0.2,0],[0.3,0],[0.4,0],[0.5,0],[0.6,0],[0.7,0],[0.8,0],[0.9,0],[0,0.1],[0,0.3],[0,0.5],[0,0.7],[0,0.9],[0.1,1],[0.2,1],[0.3,1],[0.4,1],[0.5,1],[0.6,1],[0.7,1],[0.8,1],[0.9,1],[1,0.1],[1,0.3],[1,0.5],[1,0.7],[1,0.9]];" parent="1" vertex="1">
                    <mxGeometry x="30" y="520" width="190" height="30" as="geometry"/>
                </mxCell>
                <mxCell id="51" value="" style="endArrow=classic;html=1;exitX=1;exitY=0.5;exitDx=0;exitDy=0;entryX=0;entryY=0.5;entryDx=0;entryDy=0;endSize=8;dashed=1;arcSize=0;" parent="1" source="48" target="46" edge="1">
                    <mxGeometry width="50" height="50" relative="1" as="geometry">
                        <mxPoint x="495" y="528.3299999999999" as="sourcePoint"/>
                        <mxPoint x="707.0000000000002" y="528.3299999999999" as="targetPoint"/>
                    </mxGeometry>
                </mxCell>
                <mxCell id="52" value="&lt;div&gt;geo:hasGeometry&lt;/div&gt;" style="edgeLabel;html=1;align=center;verticalAlign=middle;resizable=0;points=[];" parent="51" vertex="1" connectable="0">
                    <mxGeometry x="-0.1912" y="-1" relative="1" as="geometry">
                        <mxPoint x="21" y="-1" as="offset"/>
                    </mxGeometry>
                </mxCell>
                <mxCell id="53" value="" style="endArrow=classic;html=1;exitX=0.552;exitY=0.053;exitDx=0;exitDy=0;entryX=0.1;entryY=1;entryDx=0;entryDy=0;endSize=8;dashed=1;arcSize=0;exitPerimeter=0;" parent="1" source="56" target="48" edge="1">
                    <mxGeometry width="50" height="50" relative="1" as="geometry">
                        <mxPoint x="495" y="460" as="sourcePoint"/>
                        <mxPoint x="740" y="355" as="targetPoint"/>
                    </mxGeometry>
                </mxCell>
                <mxCell id="54" value="&lt;div&gt;s4city:refersToFeature&lt;/div&gt;" style="edgeLabel;html=1;align=center;verticalAlign=middle;resizable=0;points=[];" parent="53" vertex="1" connectable="0">
                    <mxGeometry x="-0.1912" y="-1" relative="1" as="geometry">
                        <mxPoint x="-14" y="-17" as="offset"/>
                    </mxGeometry>
                </mxCell>
                <mxCell id="55" value="saref:hasValue" style="rounded=0;whiteSpace=wrap;html=1;snapToPoint=1;points=[[0.1,0],[0.2,0],[0.3,0],[0.4,0],[0.5,0],[0.6,0],[0.7,0],[0.8,0],[0.9,0],[0,0.1],[0,0.3],[0,0.5],[0,0.7],[0,0.9],[0.1,1],[0.2,1],[0.3,1],[0.4,1],[0.5,1],[0.6,1],[0.7,1],[0.8,1],[0.9,1],[1,0.1],[1,0.3],[1,0.5],[1,0.7],[1,0.9]];dashed=1;" parent="1" vertex="1">
                    <mxGeometry x="370" y="550" width="250" height="30" as="geometry"/>
                </mxCell>
                <mxCell id="56" value="s4city:KeyPerformanceIndicatorAssessment" style="rounded=0;whiteSpace=wrap;html=1;snapToPoint=1;points=[[0.1,0],[0.2,0],[0.3,0],[0.4,0],[0.5,0],[0.6,0],[0.7,0],[0.8,0],[0.9,0],[0,0.1],[0,0.3],[0,0.5],[0,0.7],[0,0.9],[0.1,1],[0.2,1],[0.3,1],[0.4,1],[0.5,1],[0.6,1],[0.7,1],[0.8,1],[0.9,1],[1,0.1],[1,0.3],[1,0.5],[1,0.7],[1,0.9]];" parent="1" vertex="1">
                    <mxGeometry x="370" y="520" width="250" height="30" as="geometry"/>
                </mxCell>
                <mxCell id="57" value="" style="endArrow=classic;html=1;exitX=0;exitY=0.5;exitDx=0;exitDy=0;entryX=1;entryY=0.5;entryDx=0;entryDy=0;endSize=8;dashed=1;arcSize=0;" parent="1" source="56" target="49" edge="1">
                    <mxGeometry width="50" height="50" relative="1" as="geometry">
                        <mxPoint x="505" y="530" as="sourcePoint"/>
                        <mxPoint x="505" y="420" as="targetPoint"/>
                    </mxGeometry>
                </mxCell>
                <mxCell id="58" value="&lt;div&gt;s4city:quantifiesKPI&lt;/div&gt;" style="edgeLabel;html=1;align=center;verticalAlign=middle;resizable=0;points=[];" parent="57" vertex="1" connectable="0">
                    <mxGeometry x="-0.1912" y="-1" relative="1" as="geometry">
                        <mxPoint x="-9" y="1" as="offset"/>
                    </mxGeometry>
                </mxCell>
                <mxCell id="59" value="saref:UnitOfMeasure" style="rounded=0;whiteSpace=wrap;html=1;snapToPoint=1;points=[[0.1,0],[0.2,0],[0.3,0],[0.4,0],[0.5,0],[0.6,0],[0.7,0],[0.8,0],[0.9,0],[0,0.1],[0,0.3],[0,0.5],[0,0.7],[0,0.9],[0.1,1],[0.2,1],[0.3,1],[0.4,1],[0.5,1],[0.6,1],[0.7,1],[0.8,1],[0.9,1],[1,0.1],[1,0.3],[1,0.5],[1,0.7],[1,0.9]];" parent="1" vertex="1">
                    <mxGeometry x="160" y="460" width="140" height="30" as="geometry"/>
                </mxCell>
                <mxCell id="61" value="" style="endArrow=classic;html=1;exitX=0.2;exitY=0;exitDx=0;exitDy=0;entryX=1;entryY=0.5;entryDx=0;entryDy=0;endSize=8;dashed=1;arcSize=0;edgeStyle=orthogonalEdgeStyle;" parent="1" source="56" target="59" edge="1">
                    <mxGeometry width="50" height="50" relative="1" as="geometry">
                        <mxPoint x="110" y="768.3299999999999" as="sourcePoint"/>
                        <mxPoint x="322.0000000000002" y="768.3299999999999" as="targetPoint"/>
                    </mxGeometry>
                </mxCell>
                <mxCell id="62" value="&lt;div&gt;saref:isMeasuredIn&lt;/div&gt;" style="edgeLabel;html=1;align=center;verticalAlign=middle;resizable=0;points=[];" parent="61" vertex="1" connectable="0">
                    <mxGeometry x="-0.1912" y="-1" relative="1" as="geometry">
                        <mxPoint x="22" y="16" as="offset"/>
                    </mxGeometry>
                </mxCell>
                <mxCell id="71" value="&lt;u&gt;usage-o:CO2Scope1Emissions&lt;/u&gt;" style="rounded=0;whiteSpace=wrap;html=1;snapToPoint=1;points=[[0.1,0],[0.2,0],[0.3,0],[0.4,0],[0.5,0],[0.6,0],[0.7,0],[0.8,0],[0.9,0],[0,0.1],[0,0.3],[0,0.5],[0,0.7],[0,0.9],[0.1,1],[0.2,1],[0.3,1],[0.4,1],[0.5,1],[0.6,1],[0.7,1],[0.8,1],[0.9,1],[1,0.1],[1,0.3],[1,0.5],[1,0.7],[1,0.9]];" parent="1" vertex="1">
                    <mxGeometry x="80" y="600" width="180" height="30" as="geometry"/>
                </mxCell>
                <mxCell id="93" value="&lt;u&gt;usage-o:CO2Scope3Emissions&lt;/u&gt;" style="rounded=0;whiteSpace=wrap;html=1;snapToPoint=1;points=[[0.1,0],[0.2,0],[0.3,0],[0.4,0],[0.5,0],[0.6,0],[0.7,0],[0.8,0],[0.9,0],[0,0.1],[0,0.3],[0,0.5],[0,0.7],[0,0.9],[0.1,1],[0.2,1],[0.3,1],[0.4,1],[0.5,1],[0.6,1],[0.7,1],[0.8,1],[0.9,1],[1,0.1],[1,0.3],[1,0.5],[1,0.7],[1,0.9]];" vertex="1" parent="1">
                    <mxGeometry x="315" y="600" width="180" height="30" as="geometry"/>
                </mxCell>
				                <mxCell id="94" value="&lt;u&gt;usage-o:C_ELECTRICIDAD_MIXNAC&lt;/u&gt;" style="rounded=0;whiteSpace=wrap;html=1;snapToPoint=1;points=[[0.1,0],[0.2,0],[0.3,0],[0.4,0],[0.5,0],[0.6,0],[0.7,0],[0.8,0],[0.9,0],[0,0.1],[0,0.3],[0,0.5],[0,0.7],[0,0.9],[0.1,1],[0.2,1],[0.3,1],[0.4,1],[0.5,1],[0.6,1],[0.7,1],[0.8,1],[0.9,1],[1,0.1],[1,0.3],[1,0.5],[1,0.7],[1,0.9]];" vertex="1" parent="1">
                    <mxGeometry x="450" y="600" width="180" height="30" as="geometry"/>
                </mxCell>
                <mxCell id="95" value="&lt;u&gt;usage-o:C_ELECTRICIDAD_GDO&lt;/u&gt;" style="rounded=0;whiteSpace=wrap;html=1;snapToPoint=1;points=[[0.1,0],[0.2,0],[0.3,0],[0.4,0],[0.5,0],[0.6,0],[0.7,0],[0.8,0],[0.9,0],[0,0.1],[0,0.3],[0,0.5],[0,0.7],[0,0.9],[0.1,1],[0.2,1],[0.3,1],[0.4,1],[0.5,1],[0.6,1],[0.7,1],[0.8,1],[0.9,1],[1,0.1],[1,0.3],[1,0.5],[1,0.7],[1,0.9]];" vertex="1" parent="1">
                    <mxGeometry x="450" y="650" width="180" height="30" as="geometry"/>
                </mxCell>
                <mxCell id="96" value="&lt;u&gt;usage-o:C_ELECTRICIDAD_RES_LOCAL&lt;/u&gt;" style="rounded=0;whiteSpace=wrap;html=1;snapToPoint=1;points=[[0.1,0],[0.2,0],[0.3,0],[0.4,0],[0.5,0],[0.6,0],[0.7,0],[0.8,0],[0.9,0],[0,0.1],[0,0.3],[0,0.5],[0,0.7],[0,0.9],[0.1,1],[0.2,1],[0.3,1],[0.4,1],[0.5,1],[0.6,1],[0.7,1],[0.8,1],[0.9,1],[1,0.1],[1,0.3],[1,0.5],[1,0.7],[1,0.9]];" vertex="1" parent="1">
                    <mxGeometry x="450" y="700" width="180" height="30" as="geometry"/>
                </mxCell>
                <mxCell id="97" value="&lt;u&gt;usage-o:C_GASNATURAL&lt;/u&gt;" style="rounded=0;whiteSpace=wrap;html=1;snapToPoint=1;points=[[0.1,0],[0.2,0],[0.3,0],[0.4,0],[0.5,0],[0.6,0],[0.7,0],[0.8,0],[0.9,0],[0,0.1],[0,0.3],[0,0.5],[0,0.7],[0,0.9],[0.1,1],[0.2,1],[0.3,1],[0.4,1],[0.5,1],[0.6,1],[0.7,1],[0.8,1],[0.9,1],[1,0.1],[1,0.3],[1,0.5],[1,0.7],[1,0.9]];" vertex="1" parent="1">
                    <mxGeometry x="450" y="750" width="180" height="30" as="geometry"/>
                </mxCell>
                <mxCell id="98" value="&lt;u&gt;usage-o:C_GLP&lt;/u&gt;" style="rounded=0;whiteSpace=wrap;html=1;snapToPoint=1;points=[[0.1,0],[0.2,0],[0.3,0],[0.4,0],[0.5,0],[0.6,0],[0.7,0],[0.8,0],[0.9,0],[0,0.1],[0,0.3],[0,0.5],[0,0.7],[0,0.9],[0.1,1],[0.2,1],[0.3,1],[0.4,1],[0.5,1],[0.6,1],[0.7,1],[0.8,1],[0.9,1],[1,0.1],[1,0.3],[1,0.5],[1,0.7],[1,0.9]];" vertex="1" parent="1">
                    <mxGeometry x="450" y="800" width="180" height="30" as="geometry"/>
                </mxCell>
                <mxCell id="99" value="&lt;u&gt;usage-o:C_GASOLEO_C&lt;/u&gt;" style="rounded=0;whiteSpace=wrap;html=1;snapToPoint=1;points=[[0.1,0],[0.2,0],[0.3,0],[0.4,0],[0.5,0],[0.6,0],[0.7,0],[0.8,0],[0.9,0],[0,0.1],[0,0.3],[0,0.5],[0,0.7],[0,0.9],[0.1,1],[0.2,1],[0.3,1],[0.4,1],[0.5,1],[0.6,1],[0.7,1],[0.8,1],[0.9,1],[1,0.1],[1,0.3],[1,0.5],[1,0.7],[1,0.9]];" vertex="1" parent="1">
                    <mxGeometry x="450" y="850" width="180" height="30" as="geometry"/>
                </mxCell>
                <mxCell id="100" value="&lt;u&gt;usage-o:C_GASOLEO_A&lt;/u&gt;" style="rounded=0;whiteSpace=wrap;html=1;snapToPoint=1;points=[[0.1,0],[0.2,0],[0.3,0],[0.4,0],[0.5,0],[0.6,0],[0.7,0],[0.8,0],[0.9,0],[0,0.1],[0,0.3],[0,0.5],[0,0.7],[0,0.9],[0.1,1],[0.2,1],[0.3,1],[0.4,1],[0.5,1],[0.6,1],[0.7,1],[0.8,1],[0.9,1],[1,0.1],[1,0.3],[1,0.5],[1,0.7],[1,0.9]];" vertex="1" parent="1">
                    <mxGeometry x="450" y="900" width="180" height="30" as="geometry"/>
                </mxCell>
                <mxCell id="101" value="&lt;u&gt;usage-o:C_GASOLINA&lt;/u&gt;" style="rounded=0;whiteSpace=wrap;html=1;snapToPoint=1;points=[[0.1,0],[0.2,0],[0.3,0],[0.4,0],[0.5,0],[0.6,0],[0.7,0],[0.8,0],[0.9,0],[0,0.1],[0,0.3],[0,0.5],[0,0.7],[0,0.9],[0.1,1],[0.2,1],[0.3,1],[0.4,1],[0.5,1],[0.6,1],[0.7,1],[0.8,1],[0.9,1],[1,0.1],[1,0.3],[1,0.5],[1,0.7],[1,0.9]];" vertex="1" parent="1">
                    <mxGeometry x="450" y="950" width="180" height="30" as="geometry"/>
                </mxCell>
                <mxCell id="102" value="&lt;u&gt;usage-o:C_OTROS_FOSILES&lt;/u&gt;" style="rounded=0;whiteSpace=wrap;html=1;snapToPoint=1;points=[[0.1,0],[0.2,0],[0.3,0],[0.4,0],[0.5,0],[0.6,0],[0.7,0],[0.8,0],[0.9,0],[0,0.1],[0,0.3],[0,0.5],[0,0.7],[0,0.9],[0.1,1],[0.2,1],[0.3,1],[0.4,1],[0.5,1],[0.6,1],[0.7,1],[0.8,1],[0.9,1],[1,0.1],[1,0.3],[1,0.5],[1,0.7],[1,0.9]];" vertex="1" parent="1">
                    <mxGeometry x="450" y="1000" width="180" height="30" as="geometry"/>
                </mxCell>
                <mxCell id="103" value="&lt;u&gt;usage-o:C_BIOMASA&lt;/u&gt;" style="rounded=0;whiteSpace=wrap;html=1;snapToPoint=1;points=[[0.1,0],[0.2,0],[0.3,0],[0.4,0],[0.5,0],[0.6,0],[0.7,0],[0.8,0],[0.9,0],[0,0.1],[0,0.3],[0,0.5],[0,0.7],[0,0.9],[0.1,1],[0.2,1],[0.3,1],[0.4,1],[0.5,1],[0.6,1],[0.7,1],[0.8,1],[0.9,1],[1,0.1],[1,0.3],[1,0.5],[1,0.7],[1,0.9]];" vertex="1" parent="1">
                    <mxGeometry x="450" y="1050" width="180" height="30" as="geometry"/>
                </mxCell>
                <mxCell id="104" value="&lt;u&gt;usage-o:C_OTROS_RES&lt;/u&gt;" style="rounded=0;whiteSpace=wrap;html=1;snapToPoint=1;points=[[0.1,0],[0.2,0],[0.3,0],[0.4,0],[0.5,0],[0.6,0],[0.7,0],[0.8,0],[0.9,0],[0,0.1],[0,0.3],[0,0.5],[0,0.7],[0,0.9],[0.1,1],[0.2,1],[0.3,1],[0.4,1],[0.5,1],[0.6,1],[0.7,1],[0.8,1],[0.9,1],[1,0.1],[1,0.3],[1,0.5],[1,0.7],[1,0.9]];" vertex="1" parent="1">
                    <mxGeometry x="450" y="1100" width="180" height="30" as="geometry"/>
                </mxCell>
                <mxCell id="105" value="&lt;u&gt;usage-o:RESIDUOS&lt;/u&gt;" style="rounded=0;whiteSpace=wrap;html=1;snapToPoint=1;points=[[0.1,0],[0.2,0],[0.3,0],[0.4,0],[0.5,0],[0.6,0],[0.7,0],[0.8,0],[0.9,0],[0,0.1],[0,0.3],[0,0.5],[0,0.7],[0,0.9],[0.1,1],[0.2,1],[0.3,1],[0.4,1],[0.5,1],[0.6,1],[0.7,1],[0.8,1],[0.9,1],[1,0.1],[1,0.3],[1,0.5],[1,0.7],[1,0.9]];" vertex="1" parent="1">
                    <mxGeometry x="450" y="1150" width="180" height="30" as="geometry"/>
                </mxCell>
                <mxCell id="106" value="&lt;u&gt;usage-o:IPPU&lt;/u&gt;" style="rounded=0;whiteSpace=wrap;html=1;snapToPoint=1;points=[[0.1,0],[0.2,0],[0.3,0],[0.4,0],[0.5,0],[0.6,0],[0.7,0],[0.8,0],[0.9,0],[0,0.1],[0,0.3],[0,0.5],[0,0.7],[0,0.9],[0.1,1],[0.2,1],[0.3,1],[0.4,1],[0.5,1],[0.6,1],[0.7,1],[0.8,1],[0.9,1],[1,0.1],[1,0.3],[1,0.5],[1,0.7],[1,0.9]];" vertex="1" parent="1">
                    <mxGeometry x="450" y="1200" width="180" height="30" as="geometry"/>
                </mxCell>
                <mxCell id="107" value="&lt;u&gt;usage-o:AFOLU&lt;/u&gt;" style="rounded=0;whiteSpace=wrap;html=1;snapToPoint=1;points=[[0.1,0],[0.2,0],[0.3,0],[0.4,0],[0.5,0],[0.6,0],[0.7,0],[0.8,0],[0.9,0],[0,0.1],[0,0.3],[0,0.5],[0,0.7],[0,0.9],[0.1,1],[0.2,1],[0.3,1],[0.4,1],[0.5,1],[0.6,1],[0.7,1],[0.8,1],[0.9,1],[1,0.1],[1,0.3],[1,0.5],[1,0.7],[1,0.9]];" vertex="1" parent="1">
                    <mxGeometry x="450" y="1250" width="180" height="30" as="geometry"/>
                </mxCell>
                <mxCell id="108" value="&lt;u&gt;usage-o:CO2_ALC1&lt;/u&gt;" style="rounded=0;whiteSpace=wrap;html=1;snapToPoint=1;points=[[0.1,0],[0.2,0],[0.3,0],[0.4,0],[0.5,0],[0.6,0],[0.7,0],[0.8,0],[0.9,0],[0,0.1],[0,0.3],[0,0.5],[0,0.7],[0,0.9],[0.1,1],[0.2,1],[0.3,1],[0.4,1],[0.5,1],[0.6,1],[0.7,1],[0.8,1],[0.9,1],[1,0.1],[1,0.3],[1,0.5],[1,0.7],[1,0.9]];" vertex="1" parent="1">
                    <mxGeometry x="450" y="1300" width="180" height="30" as="geometry"/>
                </mxCell>
                <mxCell id="109" value="&lt;u&gt;usage-o:CH4_ALC1&lt;/u&gt;" style="rounded=0;whiteSpace=wrap;html=1;snapToPoint=1;points=[[0.1,0],[0.2,0],[0.3,0],[0.4,0],[0.5,0],[0.6,0],[0.7,0],[0.8,0],[0.9,0],[0,0.1],[0,0.3],[0,0.5],[0,0.7],[0,0.9],[0.1,1],[0.2,1],[0.3,1],[0.4,1],[0.5,1],[0.6,1],[0.7,1],[0.8,1],[0.9,1],[1,0.1],[1,0.3],[1,0.5],[1,0.7],[1,0.9]];" vertex="1" parent="1">
                    <mxGeometry x="450" y="1350" width="180" height="30" as="geometry"/>
                </mxCell>
                <mxCell id="110" value="&lt;u&gt;usage-o:N2O_ALC1&lt;/u&gt;" style="rounded=0;whiteSpace=wrap;html=1;snapToPoint=1;points=[[0.1,0],[0.2,0],[0.3,0],[0.4,0],[0.5,0],[0.6,0],[0.7,0],[0.8,0],[0.9,0],[0,0.1],[0,0.3],[0,0.5],[0,0.7],[0,0.9],[0.1,1],[0.2,1],[0.3,1],[0.4,1],[0.5,1],[0.6,1],[0.7,1],[0.8,1],[0.9,1],[1,0.1],[1,0.3],[1,0.5],[1,0.7],[1,0.9]];" vertex="1" parent="1">
                    <mxGeometry x="450" y="1400" width="180" height="30" as="geometry"/>
                </mxCell>
                <mxCell id="111" value="&lt;u&gt;usage-o:HFC_ALC1&lt;/u&gt;" style="rounded=0;whiteSpace=wrap;html=1;snapToPoint=1;points=[[0.1,0],[0.2,0],[0.3,0],[0.4,0],[0.5,0],[0.6,0],[0.7,0],[0.8,0],[0.9,0],[0,0.1],[0,0.3],[0,0.5],[0,0.7],[0,0.9],[0.1,1],[0.2,1],[0.3,1],[0.4,1],[0.5,1],[0.6,1],[0.7,1],[0.8,1],[0.9,1],[1,0.1],[1,0.3],[1,0.5],[1,0.7],[1,0.9]];" vertex="1" parent="1">
                    <mxGeometry x="450" y="1450" width="180" height="30" as="geometry"/>
                </mxCell>
                <mxCell id="112" value="&lt;u&gt;usage-o:PFC_ALC1&lt;/u&gt;" style="rounded=0;whiteSpace=wrap;html=1;snapToPoint=1;points=[[0.1,0],[0.2,0],[0.3,0],[0.4,0],[0.5,0],[0.6,0],[0.7,0],[0.8,0],[0.9,0],[0,0.1],[0,0.3],[0,0.5],[0,0.7],[0,0.9],[0.1,1],[0.2,1],[0.3,1],[0.4,1],[0.5,1],[0.6,1],[0.7,1],[0.8,1],[0.9,1],[1,0.1],[1,0.3],[1,0.5],[1,0.7],[1,0.9]];" vertex="1" parent="1">
                    <mxGeometry x="450" y="1500" width="180" height="30" as="geometry"/>
                </mxCell>
                <mxCell id="113" value="&lt;u&gt;usage-o:SF6_ALC1&lt;/u&gt;" style="rounded=0;whiteSpace=wrap;html=1;snapToPoint=1;points=[[0.1,0],[0.2,0],[0.3,0],[0.4,0],[0.5,0],[0.6,0],[0.7,0],[0.8,0],[0.9,0],[0,0.1],[0,0.3],[0,0.5],[0,0.7],[0,0.9],[0.1,1],[0.2,1],[0.3,1],[0.4,1],[0.5,1],[0.6,1],[0.7,1],[0.8,1],[0.9,1],[1,0.1],[1,0.3],[1,0.5],[1,0.7],[1,0.9]];" vertex="1" parent="1">
                    <mxGeometry x="450" y="1550" width="180" height="30" as="geometry"/>
                </mxCell>
                <mxCell id="114" value="&lt;u&gt;usage-o:CO2_ALC2&lt;/u&gt;" style="rounded=0;whiteSpace=wrap;html=1;snapToPoint=1;points=[[0.1,0],[0.2,0],[0.3,0],[0.4,0],[0.5,0],[0.6,0],[0.7,0],[0.8,0],[0.9,0],[0,0.1],[0,0.3],[0,0.5],[0,0.7],[0,0.9],[0.1,1],[0.2,1],[0.3,1],[0.4,1],[0.5,1],[0.6,1],[0.7,1],[0.8,1],[0.9,1],[1,0.1],[1,0.3],[1,0.5],[1,0.7],[1,0.9]];" vertex="1" parent="1">
                    <mxGeometry x="450" y="1600" width="180" height="30" as="geometry"/>
                </mxCell>
                <mxCell id="115" value="&lt;u&gt;usage-o:CH4_ALC2&lt;/u&gt;" style="rounded=0;whiteSpace=wrap;html=1;snapToPoint=1;points=[[0.1,0],[0.2,0],[0.3,0],[0.4,0],[0.5,0],[0.6,0],[0.7,0],[0.8,0],[0.9,0],[0,0.1],[0,0.3],[0,0.5],[0,0.7],[0,0.9],[0.1,1],[0.2,1],[0.3,1],[0.4,1],[0.5,1],[0.6,1],[0.7,1],[0.8,1],[0.9,1],[1,0.1],[1,0.3],[1,0.5],[1,0.7],[1,0.9]];" vertex="1" parent="1">
                    <mxGeometry x="450" y="1650" width="180" height="30" as="geometry"/>
                </mxCell>
                <mxCell id="116" value="&lt;u&gt;usage-o:N2O_ALC2&lt;/u&gt;" style="rounded=0;whiteSpace=wrap;html=1;snapToPoint=1;points=[[0.1,0],[0.2,0],[0.3,0],[0.4,0],[0.5,0],[0.6,0],[0.7,0],[0.8,0],[0.9,0],[0,0.1],[0,0.3],[0,0.5],[0,0.7],[0,0.9],[0.1,1],[0.2,1],[0.3,1],[0.4,1],[0.5,1],[0.6,1],[0.7,1],[0.8,1],[0.9,1],[1,0.1],[1,0.3],[1,0.5],[1,0.7],[1,0.9]];" vertex="1" parent="1">
                    <mxGeometry x="450" y="1700" width="180" height="30" as="geometry"/>
                </mxCell>
                <mxCell id="117" value="&lt;u&gt;usage-o:CO2_ALC3&lt;/u&gt;" style="rounded=0;whiteSpace=wrap;html=1;snapToPoint=1;points=[[0.1,0],[0.2,0],[0.3,0],[0.4,0],[0.5,0],[0.6,0],[0.7,0],[0.8,0],[0.9,0],[0,0.1],[0,0.3],[0,0.5],[0,0.7],[0,0.9],[0.1,1],[0.2,1],[0.3,1],[0.4,1],[0.5,1],[0.6,1],[0.7,1],[0.8,1],[0.9,1],[1,0.1],[1,0.3],[1,0.5],[1,0.7],[1,0.9]];" vertex="1" parent="1">
                    <mxGeometry x="450" y="1750" width="180" height="30" as="geometry"/>
                </mxCell>
                <mxCell id="118" value="&lt;u&gt;usage-o:CH4_ALC3&lt;/u&gt;" style="rounded=0;whiteSpace=wrap;html=1;snapToPoint=1;points=[[0.1,0],[0.2,0],[0.3,0],[0.4,0],[0.5,0],[0.6,0],[0.7,0],[0.8,0],[0.9,0],[0,0.1],[0,0.3],[0,0.5],[0,0.7],[0,0.9],[0.1,1],[0.2,1],[0.3,1],[0.4,1],[0.5,1],[0.6,1],[0.7,1],[0.8,1],[0.9,1],[1,0.1],[1,0.3],[1,0.5],[1,0.7],[1,0.9]];" vertex="1" parent="1">
                    <mxGeometry x="450" y="1800" width="180" height="30" as="geometry"/>
                </mxCell>
                <mxCell id="119" value="&lt;u&gt;usage-o:N2O_ALC3&lt;/u&gt;" style="rounded=0;whiteSpace=wrap;html=1;snapToPoint=1;points=[[0.1,0],[0.2,0],[0.3,0],[0.4,0],[0.5,0],[0.6,0],[0.7,0],[0.8,0],[0.9,0],[0,0.1],[0,0.3],[0,0.5],[0,0.7],[0,0.9],[0.1,1],[0.2,1],[0.3,1],[0.4,1],[0.5,1],[0.6,1],[0.7,1],[0.8,1],[0.9,1],[1,0.1],[1,0.3],[1,0.5],[1,0.7],[1,0.9]];" vertex="1" parent="1">
                    <mxGeometry x="450" y="1850" width="180" height="30" as="geometry"/>
                </mxCell>
                <mxCell id="120" value="&lt;u&gt;usage-o:NOx&lt;/u&gt;" style="rounded=0;whiteSpace=wrap;html=1;snapToPoint=1;points=[[0.1,0],[0.2,0],[0.3,0],[0.4,0],[0.5,0],[0.6,0],[0.7,0],[0.8,0],[0.9,0],[0,0.1],[0,0.3],[0,0.5],[0,0.7],[0,0.9],[0.1,1],[0.2,1],[0.3,1],[0.4,1],[0.5,1],[0.6,1],[0.7,1],[0.8,1],[0.9,1],[1,0.1],[1,0.3],[1,0.5],[1,0.7],[1,0.9]];" vertex="1" parent="1">
                    <mxGeometry x="450" y="1900" width="180" height="30" as="geometry"/>
                </mxCell>
                <mxCell id="121" value="&lt;u&gt;usage-o:CO&lt;/u&gt;" style="rounded=0;whiteSpace=wrap;html=1;snapToPoint=1;points=[[0.1,0],[0.2,0],[0.3,0],[0.4,0],[0.5,0],[0.6,0],[0.7,0],[0.8,0],[0.9,0],[0,0.1],[0,0.3],[0,0.5],[0,0.7],[0,0.9],[0.1,1],[0.2,1],[0.3,1],[0.4,1],[0.5,1],[0.6,1],[0.7,1],[0.8,1],[0.9,1],[1,0.1],[1,0.3],[1,0.5],[1,0.7],[1,0.9]];" vertex="1" parent="1">
                    <mxGeometry x="450" y="1950" width="180" height="30" as="geometry"/>
                </mxCell>
                <mxCell id="122" value="&lt;u&gt;usage-o:SO2&lt;/u&gt;" style="rounded=0;whiteSpace=wrap;html=1;snapToPoint=1;points=[[0.1,0],[0.2,0],[0.3,0],[0.4,0],[0.5,0],[0.6,0],[0.7,0],[0.8,0],[0.9,0],[0,0.1],[0,0.3],[0,0.5],[0,0.7],[0,0.9],[0.1,1],[0.2,1],[0.3,1],[0.4,1],[0.5,1],[0.6,1],[0.7,1],[0.8,1],[0.9,1],[1,0.1],[1,0.3],[1,0.5],[1,0.7],[1,0.9]];" vertex="1" parent="1">
                    <mxGeometry x="450" y="2000" width="180" height="30" as="geometry"/>
                </mxCell>
                <mxCell id="123" value="&lt;u&gt;usage-o:COV&lt;/u&gt;" style="rounded=0;whiteSpace=wrap;html=1;snapToPoint=1;points=[[0.1,0],[0.2,0],[0.3,0],[0.4,0],[0.5,0],[0.6,0],[0.7,0],[0.8,0],[0.9,0],[0,0.1],[0,0.3],[0,0.5],[0,0.7],[0,0.9],[0.1,1],[0.2,1],[0.3,1],[0.4,1],[0.5,1],[0.6,1],[0.7,1],[0.8,1],[0.9,1],[1,0.1],[1,0.3],[1,0.5],[1,0.7],[1,0.9]];" vertex="1" parent="1">
                    <mxGeometry x="450" y="2050" width="180" height="30" as="geometry"/>
                </mxCell>
                <mxCell id="124" value="&lt;u&gt;usage-o:COVNM&lt;/u&gt;" style="rounded=0;whiteSpace=wrap;html=1;snapToPoint=1;points=[[0.1,0],[0.2,0],[0.3,0],[0.4,0],[0.5,0],[0.6,0],[0.7,0],[0.8,0],[0.9,0],[0,0.1],[0,0.3],[0,0.5],[0,0.7],[0,0.9],[0.1,1],[0.2,1],[0.3,1],[0.4,1],[0.5,1],[0.6,1],[0.7,1],[0.8,1],[0.9,1],[1,0.1],[1,0.3],[1,0.5],[1,0.7],[1,0.9]];" vertex="1" parent="1">
                    <mxGeometry x="450" y="2100" width="180" height="30" as="geometry"/>
                </mxCell>
                <mxCell id="125" value="&lt;u&gt;usage-o:NH3&lt;/u&gt;" style="rounded=0;whiteSpace=wrap;html=1;snapToPoint=1;points=[[0.1,0],[0.2,0],[0.3,0],[0.4,0],[0.5,0],[0.6,0],[0.7,0],[0.8,0],[0.9,0],[0,0.1],[0,0.3],[0,0.5],[0,0.7],[0,0.9],[0.1,1],[0.2,1],[0.3,1],[0.4,1],[0.5,1],[0.6,1],[0.7,1],[0.8,1],[0.9,1],[1,0.1],[1,0.3],[1,0.5],[1,0.7],[1,0.9]];" vertex="1" parent="1">
                    <mxGeometry x="450" y="2150" width="180" height="30" as="geometry"/>
                </mxCell>
                <mxCell id="126" value="&lt;u&gt;usage-o:PM2.5&lt;/u&gt;" style="rounded=0;whiteSpace=wrap;html=1;snapToPoint=1;points=[[0.1,0],[0.2,0],[0.3,0],[0.4,0],[0.5,0],[0.6,0],[0.7,0],[0.8,0],[0.9,0],[0,0.1],[0,0.3],[0,0.5],[0,0.7],[0,0.9],[0.1,1],[0.2,1],[0.3,1],[0.4,1],[0.5,1],[0.6,1],[0.7,1],[0.8,1],[0.9,1],[1,0.1],[1,0.3],[1,0.5],[1,0.7],[1,0.9]];" vertex="1" parent="1">
                    <mxGeometry x="450" y="2200" width="180" height="30" as="geometry"/>
                </mxCell>
                <mxCell id="127" value="&lt;u&gt;usage-o:PM10&lt;/u&gt;" style="rounded=0;whiteSpace=wrap;html=1;snapToPoint=1;points=[[0.1,0],[0.2,0],[0.3,0],[0.4,0],[0.5,0],[0.6,0],[0.7,0],[0.8,0],[0.9,0],[0,0.1],[0,0.3],[0,0.5],[0,0.7],[0,0.9],[0.1,1],[0.2,1],[0.3,1],[0.4,1],[0.5,1],[0.6,1],[0.7,1],[0.8,1],[0.9,1],[1,0.1],[1,0.3],[1,0.5],[1,0.7],[1,0.9]];" vertex="1" parent="1">
                    <mxGeometry x="450" y="2250" width="180" height="30" as="geometry"/>
                </mxCell>
                <mxCell id="128" value="&lt;u&gt;usage-o:TSP&lt;/u&gt;" style="rounded=0;whiteSpace=wrap;html=1;snapToPoint=1;points=[[0.1,0],[0.2,0],[0.3,0],[0.4,0],[0.5,0],[0.6,0],[0.7,0],[0.8,0],[0.9,0],[0,0.1],[0,0.3],[0,0.5],[0,0.7],[0,0.9],[0.1,1],[0.2,1],[0.3,1],[0.4,1],[0.5,1],[0.6,1],[0.7,1],[0.8,1],[0.9,1],[1,0.1],[1,0.3],[1,0.5],[1,0.7],[1,0.9]];" vertex="1" parent="1">
                    <mxGeometry x="450" y="2300" width="180" height="30" as="geometry"/>
                </mxCell>
                <mxCell id="129" value="&lt;u&gt;usage-o:BC&lt;/u&gt;" style="rounded=0;whiteSpace=wrap;html=1;snapToPoint=1;points=[[0.1,0],[0.2,0],[0.3,0],[0.4,0],[0.5,0],[0.6,0],[0.7,0],[0.8,0],[0.9,0],[0,0.1],[0,0.3],[0,0.5],[0,0.7],[0,0.9],[0.1,1],[0.2,1],[0.3,1],[0.4,1],[0.5,1],[0.6,1],[0.7,1],[0.8,1],[0.9,1],[1,0.1],[1,0.3],[1,0.5],[1,0.7],[1,0.9]];" vertex="1" parent="1">
                    <mxGeometry x="450" y="2350" width="180" height="30" as="geometry"/>
                </mxCell>
                <mxCell id="130" value="&lt;u&gt;usage-o:C6H6&lt;/u&gt;" style="rounded=0;whiteSpace=wrap;html=1;snapToPoint=1;points=[[0.1,0],[0.2,0],[0.3,0],[0.4,0],[0.5,0],[0.6,0],[0.7,0],[0.8,0],[0.9,0],[0,0.1],[0,0.3],[0,0.5],[0,0.7],[0,0.9],[0.1,1],[0.2,1],[0.3,1],[0.4,1],[0.5,1],[0.6,1],[0.7,1],[0.8,1],[0.9,1],[1,0.1],[1,0.3],[1,0.5],[1,0.7],[1,0.9]];" vertex="1" parent="1">
                    <mxGeometry x="450" y="2400" width="180" height="30" as="geometry"/>
                </mxCell>
                <mxCell id="131" value="&lt;u&gt;usage-o:Pb&lt;/u&gt;" style="rounded=0;whiteSpace=wrap;html=1;snapToPoint=1;points=[[0.1,0],[0.2,0],[0.3,0],[0.4,0],[0.5,0],[0.6,0],[0.7,0],[0.8,0],[0.9,0],[0,0.1],[0,0.3],[0,0.5],[0,0.7],[0,0.9],[0.1,1],[0.2,1],[0.3,1],[0.4,1],[0.5,1],[0.6,1],[0.7,1],[0.8,1],[0.9,1],[1,0.1],[1,0.3],[1,0.5],[1,0.7],[1,0.9]];" vertex="1" parent="1">
                    <mxGeometry x="450" y="2450" width="180" height="30" as="geometry"/>
                </mxCell>
                <mxCell id="132" value="&lt;u&gt;usage-o:Cd&lt;/u&gt;" style="rounded=0;whiteSpace=wrap;html=1;snapToPoint=1;points=[[0.1,0],[0.2,0],[0.3,0],[0.4,0],[0.5,0],[0.6,0],[0.7,0],[0.8,0],[0.9,0],[0,0.1],[0,0.3],[0,0.5],[0,0.7],[0,0.9],[0.1,1],[0.2,1],[0.3,1],[0.4,1],[0.5,1],[0.6,1],[0.7,1],[0.8,1],[0.9,1],[1,0.1],[1,0.3],[1,0.5],[1,0.7],[1,0.9]];" vertex="1" parent="1">
                    <mxGeometry x="450" y="2500" width="180" height="30" as="geometry"/>
                </mxCell>
                <mxCell id="133" value="&lt;u&gt;usage-o:Hg&lt;/u&gt;" style="rounded=0;whiteSpace=wrap;html=1;snapToPoint=1;points=[[0.1,0],[0.2,0],[0.3,0],[0.4,0],[0.5,0],[0.6,0],[0.7,0],[0.8,0],[0.9,0],[0,0.1],[0,0.3],[0,0.5],[0,0.7],[0,0.9],[0.1,1],[0.2,1],[0.3,1],[0.4,1],[0.5,1],[0.6,1],[0.7,1],[0.8,1],[0.9,1],[1,0.1],[1,0.3],[1,0.5],[1,0.7],[1,0.9]];" vertex="1" parent="1">
                    <mxGeometry x="450" y="2550" width="180" height="30" as="geometry"/>
                </mxCell>
                <mxCell id="134" value="&lt;u&gt;usage-o:As&lt;/u&gt;" style="rounded=0;whiteSpace=wrap;html=1;snapToPoint=1;points=[[0.1,0],[0.2,0],[0.3,0],[0.4,0],[0.5,0],[0.6,0],[0.7,0],[0.8,0],[0.9,0],[0,0.1],[0,0.3],[0,0.5],[0,0.7],[0,0.9],[0.1,1],[0.2,1],[0.3,1],[0.4,1],[0.5,1],[0.6,1],[0.7,1],[0.8,1],[0.9,1],[1,0.1],[1,0.3],[1,0.5],[1,0.7],[1,0.9]];" vertex="1" parent="1">
                    <mxGeometry x="450" y="2600" width="180" height="30" as="geometry"/>
                </mxCell>
                <mxCell id="135" value="&lt;u&gt;usage-o:Cr&lt;/u&gt;" style="rounded=0;whiteSpace=wrap;html=1;snapToPoint=1;points=[[0.1,0],[0.2,0],[0.3,0],[0.4,0],[0.5,0],[0.6,0],[0.7,0],[0.8,0],[0.9,0],[0,0.1],[0,0.3],[0,0.5],[0,0.7],[0,0.9],[0.1,1],[0.2,1],[0.3,1],[0.4,1],[0.5,1],[0.6,1],[0.7,1],[0.8,1],[0.9,1],[1,0.1],[1,0.3],[1,0.5],[1,0.7],[1,0.9]];" vertex="1" parent="1">
                    <mxGeometry x="450" y="2650" width="180" height="30" as="geometry"/>
                </mxCell>
                <mxCell id="136" value="&lt;u&gt;usage-o:Cu&lt;/u&gt;" style="rounded=0;whiteSpace=wrap;html=1;snapToPoint=1;points=[[0.1,0],[0.2,0],[0.3,0],[0.4,0],[0.5,0],[0.6,0],[0.7,0],[0.8,0],[0.9,0],[0,0.1],[0,0.3],[0,0.5],[0,0.7],[0,0.9],[0.1,1],[0.2,1],[0.3,1],[0.4,1],[0.5,1],[0.6,1],[0.7,1],[0.8,1],[0.9,1],[1,0.1],[1,0.3],[1,0.5],[1,0.7],[1,0.9]];" vertex="1" parent="1">
                    <mxGeometry x="450" y="2700" width="180" height="30" as="geometry"/>
                </mxCell>
                <mxCell id="137" value="&lt;u&gt;usage-o:Ni&lt;/u&gt;" style="rounded=0;whiteSpace=wrap;html=1;snapToPoint=1;points=[[0.1,0],[0.2,0],[0.3,0],[0.4,0],[0.5,0],[0.6,0],[0.7,0],[0.8,0],[0.9,0],[0,0.1],[0,0.3],[0,0.5],[0,0.7],[0,0.9],[0.1,1],[0.2,1],[0.3,1],[0.4,1],[0.5,1],[0.6,1],[0.7,1],[0.8,1],[0.9,1],[1,0.1],[1,0.3],[1,0.5],[1,0.7],[1,0.9]];" vertex="1" parent="1">
                    <mxGeometry x="450" y="2750" width="180" height="30" as="geometry"/>
                </mxCell>
                <mxCell id="138" value="&lt;u&gt;usage-o:Se&lt;/u&gt;" style="rounded=0;whiteSpace=wrap;html=1;snapToPoint=1;points=[[0.1,0],[0.2,0],[0.3,0],[0.4,0],[0.5,0],[0.6,0],[0.7,0],[0.8,0],[0.9,0],[0,0.1],[0,0.3],[0,0.5],[0,0.7],[0,0.9],[0.1,1],[0.2,1],[0.3,1],[0.4,1],[0.5,1],[0.6,1],[0.7,1],[0.8,1],[0.9,1],[1,0.1],[1,0.3],[1,0.5],[1,0.7],[1,0.9]];" vertex="1" parent="1">
                    <mxGeometry x="450" y="2800" width="180" height="30" as="geometry"/>
                </mxCell>
                <mxCell id="139" value="&lt;u&gt;usage-o:Zn&lt;/u&gt;" style="rounded=0;whiteSpace=wrap;html=1;snapToPoint=1;points=[[0.1,0],[0.2,0],[0.3,0],[0.4,0],[0.5,0],[0.6,0],[0.7,0],[0.8,0],[0.9,0],[0,0.1],[0,0.3],[0,0.5],[0,0.7],[0,0.9],[0.1,1],[0.2,1],[0.3,1],[0.4,1],[0.5,1],[0.6,1],[0.7,1],[0.8,1],[0.9,1],[1,0.1],[1,0.3],[1,0.5],[1,0.7],[1,0.9]];" vertex="1" parent="1">
                    <mxGeometry x="450" y="2850" width="180" height="30" as="geometry"/>
                </mxCell>
                <mxCell id="140" value="&lt;u&gt;usage-o:DIOX&lt;/u&gt;" style="rounded=0;whiteSpace=wrap;html=1;snapToPoint=1;points=[[0.1,0],[0.2,0],[0.3,0],[0.4,0],[0.5,0],[0.6,0],[0.7,0],[0.8,0],[0.9,0],[0,0.1],[0,0.3],[0,0.5],[0,0.7],[0,0.9],[0.1,1],[0.2,1],[0.3,1],[0.4,1],[0.5,1],[0.6,1],[0.7,1],[0.8,1],[0.9,1],[1,0.1],[1,0.3],[1,0.5],[1,0.7],[1,0.9]];" vertex="1" parent="1">
                    <mxGeometry x="450" y="2900" width="180" height="30" as="geometry"/>
                </mxCell>
                <mxCell id="141" value="&lt;u&gt;usage-o:BENZO_A&lt;/u&gt;" style="rounded=0;whiteSpace=wrap;html=1;snapToPoint=1;points=[[0.1,0],[0.2,0],[0.3,0],[0.4,0],[0.5,0],[0.6,0],[0.7,0],[0.8,0],[0.9,0],[0,0.1],[0,0.3],[0,0.5],[0,0.7],[0,0.9],[0.1,1],[0.2,1],[0.3,1],[0.4,1],[0.5,1],[0.6,1],[0.7,1],[0.8,1],[0.9,1],[1,0.1],[1,0.3],[1,0.5],[1,0.7],[1,0.9]];" vertex="1" parent="1">
                    <mxGeometry x="450" y="2950" width="180" height="30" as="geometry"/>
                </mxCell>
                <mxCell id="142" value="&lt;u&gt;usage-o:BENZO_B&lt;/u&gt;" style="rounded=0;whiteSpace=wrap;html=1;snapToPoint=1;points=[[0.1,0],[0.2,0],[0.3,0],[0.4,0],[0.5,0],[0.6,0],[0.7,0],[0.8,0],[0.9,0],[0,0.1],[0,0.3],[0,0.5],[0,0.7],[0,0.9],[0.1,1],[0.2,1],[0.3,1],[0.4,1],[0.5,1],[0.6,1],[0.7,1],[0.8,1],[0.9,1],[1,0.1],[1,0.3],[1,0.5],[1,0.7],[1,0.9]];" vertex="1" parent="1">
                    <mxGeometry x="450" y="3000" width="180" height="30" as="geometry"/>
                </mxCell>
                <mxCell id="143" value="&lt;u&gt;usage-o:INDENO_123&lt;/u&gt;" style="rounded=0;whiteSpace=wrap;html=1;snapToPoint=1;points=[[0.1,0],[0.2,0],[0.3,0],[0.4,0],[0.5,0],[0.6,0],[0.7,0],[0.8,0],[0.9,0],[0,0.1],[0,0.3],[0,0.5],[0,0.7],[0,0.9],[0.1,1],[0.2,1],[0.3,1],[0.4,1],[0.5,1],[0.6,1],[0.7,1],[0.8,1],[0.9,1],[1,0.1],[1,0.3],[1,0.5],[1,0.7],[1,0.9]];" vertex="1" parent="1">
                    <mxGeometry x="450" y="3050" width="180" height="30" as="geometry"/>
                </mxCell>
                <mxCell id="144" value="&lt;u&gt;usage-o:PAH&lt;/u&gt;" style="rounded=0;whiteSpace=wrap;html=1;snapToPoint=1;points=[[0.1,0],[0.2,0],[0.3,0],[0.4,0],[0.5,0],[0.6,0],[0.7,0],[0.8,0],[0.9,0],[0,0.1],[0,0.3],[0,0.5],[0,0.7],[0,0.9],[0.1,1],[0.2,1],[0.3,1],[0.4,1],[0.5,1],[0.6,1],[0.7,1],[0.8,1],[0.9,1],[1,0.1],[1,0.3],[1,0.5],[1,0.7],[1,0.9]];" vertex="1" parent="1">
                    <mxGeometry x="450" y="3100" width="180" height="30" as="geometry"/>
                </mxCell>
                <mxCell id="145" value="&lt;u&gt;usage-o:HCB&lt;/u&gt;" style="rounded=0;whiteSpace=wrap;html=1;snapToPoint=1;points=[[0.1,0],[0.2,0],[0.3,0],[0.4,0],[0.5,0],[0.6,0],[0.7,0],[0.8,0],[0.9,0],[0,0.1],[0,0.3],[0,0.5],[0,0.7],[0,0.9],[0.1,1],[0.2,1],[0.3,1],[0.4,1],[0.5,1],[0.6,1],[0.7,1],[0.8,1],[0.9,1],[1,0.1],[1,0.3],[1,0.5],[1,0.7],[1,0.9]];" vertex="1" parent="1">
                    <mxGeometry x="450" y="3150" width="180" height="30" as="geometry"/>
                </mxCell>
                <mxCell id="146" value="&lt;u&gt;usage-o:PCBs&lt;/u&gt;" style="rounded=0;whiteSpace=wrap;html=1;snapToPoint=1;points=[[0.1,0],[0.2,0],[0.3,0],[0.4,0],[0.5,0],[0.6,0],[0.7,0],[0.8,0],[0.9,0],[0,0.1],[0,0.3],[0,0.5],[0,0.7],[0,0.9],[0.1,1],[0.2,1],[0.3,1],[0.4,1],[0.5,1],[0.6,1],[0.7,1],[0.8,1],[0.9,1],[1,0.1],[1,0.3],[1,0.5],[1,0.7],[1,0.9]];" vertex="1" parent="1">
                    <mxGeometry x="450" y="3200" width="180" height="30" as="geometry"/>
                </mxCell>
                <mxCell id="147" value="&lt;u&gt;usage-o:TOTAL_POPs&lt;/u&gt;" style="rounded=0;whiteSpace=wrap;html=1;snapToPoint=1;points=[[0.1,0],[0.2,0],[0.3,0],[0.4,0],[0.5,0],[0.6,0],[0.7,0],[0.8,0],[0.9,0],[0,0.1],[0,0.3],[0,0.5],[0,0.7],[0,0.9],[0.1,1],[0.2,1],[0.3,1],[0.4,1],[0.5,1],[0.6,1],[0.7,1],[0.8,1],[0.9,1],[1,0.1],[1,0.3],[1,0.5],[1,0.7],[1,0.9]];" vertex="1" parent="1">
                    <mxGeometry x="450" y="3250" width="180" height="30" as="geometry"/>
                </mxCell>
                <mxCell id="148" value="&lt;u&gt;usage-o:TOTAL_MPESADOS&lt;/u&gt;" style="rounded=0;whiteSpace=wrap;html=1;snapToPoint=1;points=[[0.1,0],[0.2,0],[0.3,0],[0.4,0],[0.5,0],[0.6,0],[0.7,0],[0.8,0],[0.9,0],[0,0.1],[0,0.3],[0,0.5],[0,0.7],[0,0.9],[0.1,1],[0.2,1],[0.3,1],[0.4,1],[0.5,1],[0.6,1],[0.7,1],[0.8,1],[0.9,1],[1,0.1],[1,0.3],[1,0.5],[1,0.7],[1,0.9]];" vertex="1" parent="1">
                    <mxGeometry x="450" y="3300" width="180" height="30" as="geometry"/>
                </mxCell>

                <mxCell id="72" value="" style="endArrow=open;html=1;fontColor=#000099;endFill=0;dashed=1;endSize=8;exitX=0;exitY=0.5;exitDx=0;exitDy=0;edgeStyle=orthogonalEdgeStyle;rounded=0;entryX=0.1;entryY=1;entryDx=0;entryDy=0;" parent="1" source="71" target="49" edge="1">
                    <mxGeometry width="50" height="50" relative="1" as="geometry">
                        <mxPoint x="310" y="770" as="sourcePoint"/>
                        <mxPoint x="100" y="570" as="targetPoint"/>
                    </mxGeometry>
                </mxCell>
                <mxCell id="75" value="&lt;u&gt;usage-o:CH4Scope1Emissions&lt;/u&gt;" style="rounded=0;whiteSpace=wrap;html=1;snapToPoint=1;points=[[0.1,0],[0.2,0],[0.3,0],[0.4,0],[0.5,0],[0.6,0],[0.7,0],[0.8,0],[0.9,0],[0,0.1],[0,0.3],[0,0.5],[0,0.7],[0,0.9],[0.1,1],[0.2,1],[0.3,1],[0.4,1],[0.5,1],[0.6,1],[0.7,1],[0.8,1],[0.9,1],[1,0.1],[1,0.3],[1,0.5],[1,0.7],[1,0.9]];" parent="1" vertex="1">
                    <mxGeometry x="80" y="650" width="180" height="30" as="geometry"/>
                </mxCell>
                <mxCell id="76" value="" style="endArrow=open;html=1;fontColor=#000099;endFill=0;dashed=1;endSize=8;exitX=0;exitY=0.5;exitDx=0;exitDy=0;edgeStyle=orthogonalEdgeStyle;rounded=0;entryX=0.1;entryY=1;entryDx=0;entryDy=0;" parent="1" source="75" target="49" edge="1">
                    <mxGeometry width="50" height="50" relative="1" as="geometry">
                        <mxPoint x="90" y="625" as="sourcePoint"/>
                        <mxPoint x="30" y="610" as="targetPoint"/>
                    </mxGeometry>
                </mxCell>
                <mxCell id="77" value="&lt;u&gt;usage-o:N2OScope1Emissions&lt;/u&gt;" style="rounded=0;whiteSpace=wrap;html=1;snapToPoint=1;points=[[0.1,0],[0.2,0],[0.3,0],[0.4,0],[0.5,0],[0.6,0],[0.7,0],[0.8,0],[0.9,0],[0,0.1],[0,0.3],[0,0.5],[0,0.7],[0,0.9],[0.1,1],[0.2,1],[0.3,1],[0.4,1],[0.5,1],[0.6,1],[0.7,1],[0.8,1],[0.9,1],[1,0.1],[1,0.3],[1,0.5],[1,0.7],[1,0.9]];" parent="1" vertex="1">
                    <mxGeometry x="80" y="700" width="180" height="30" as="geometry"/>
                </mxCell>
                <mxCell id="78" value="" style="endArrow=open;html=1;fontColor=#000099;endFill=0;dashed=1;endSize=8;exitX=0;exitY=0.5;exitDx=0;exitDy=0;edgeStyle=orthogonalEdgeStyle;rounded=0;entryX=0.1;entryY=1;entryDx=0;entryDy=0;" parent="1" source="77" target="49" edge="1">
                    <mxGeometry width="50" height="50" relative="1" as="geometry">
                        <mxPoint x="90" y="675" as="sourcePoint"/>
                        <mxPoint x="59" y="560" as="targetPoint"/>
                    </mxGeometry>
                </mxCell>
                <mxCell id="79" value="" style="endArrow=block;html=1;fontColor=#000099;exitX=0;exitY=0.5;exitDx=0;exitDy=0;endFill=0;entryX=0.2;entryY=1;entryDx=0;entryDy=0;endSize=8;arcSize=0;edgeStyle=orthogonalEdgeStyle;" parent="1" source="81" target="80" edge="1">
                    <mxGeometry width="50" height="50" relative="1" as="geometry">
                        <mxPoint x="400" y="375" as="sourcePoint"/>
                        <mxPoint x="557.9999999999893" y="375" as="targetPoint"/>
                    </mxGeometry>
                </mxCell>
                <mxCell id="80" value="s4city:AdministrativeArea" style="rounded=0;whiteSpace=wrap;html=1;snapToPoint=1;points=[[0.1,0],[0.2,0],[0.3,0],[0.4,0],[0.5,0],[0.6,0],[0.7,0],[0.8,0],[0.9,0],[0,0.1],[0,0.3],[0,0.5],[0,0.7],[0,0.9],[0.1,1],[0.2,1],[0.3,1],[0.4,1],[0.5,1],[0.6,1],[0.7,1],[0.8,1],[0.9,1],[1,0.1],[1,0.3],[1,0.5],[1,0.7],[1,0.9]];" parent="1" vertex="1">
                    <mxGeometry x="580" y="335" width="155" height="30" as="geometry"/>
                </mxCell>
                <mxCell id="81" value="s4city:District" style="rounded=0;whiteSpace=wrap;html=1;snapToPoint=1;points=[[0.1,0],[0.2,0],[0.3,0],[0.4,0],[0.5,0],[0.6,0],[0.7,0],[0.8,0],[0.9,0],[0,0.1],[0,0.3],[0,0.5],[0,0.7],[0,0.9],[0.1,1],[0.2,1],[0.3,1],[0.4,1],[0.5,1],[0.6,1],[0.7,1],[0.8,1],[0.9,1],[1,0.1],[1,0.3],[1,0.5],[1,0.7],[1,0.9]];" parent="1" vertex="1">
                    <mxGeometry x="640" y="390" width="90" height="30" as="geometry"/>
                </mxCell>
                <mxCell id="82" value="s4city:Neighbourhood" style="rounded=0;whiteSpace=wrap;html=1;snapToPoint=1;points=[[0.1,0],[0.2,0],[0.3,0],[0.4,0],[0.5,0],[0.6,0],[0.7,0],[0.8,0],[0.9,0],[0,0.1],[0,0.3],[0,0.5],[0,0.7],[0,0.9],[0.1,1],[0.2,1],[0.3,1],[0.4,1],[0.5,1],[0.6,1],[0.7,1],[0.8,1],[0.9,1],[1,0.1],[1,0.3],[1,0.5],[1,0.7],[1,0.9]];" parent="1" vertex="1">
                    <mxGeometry x="640" y="430" width="145" height="30" as="geometry"/>
                </mxCell>
                <mxCell id="83" value="" style="endArrow=block;html=1;fontColor=#000099;exitX=0;exitY=0.5;exitDx=0;exitDy=0;endFill=0;entryX=0.2;entryY=1;entryDx=0;entryDy=0;endSize=8;arcSize=0;edgeStyle=orthogonalEdgeStyle;" parent="1" source="82" target="80" edge="1">
                    <mxGeometry width="50" height="50" relative="1" as="geometry">
                        <mxPoint x="500" y="445" as="sourcePoint"/>
                        <mxPoint x="775" y="435" as="targetPoint"/>
                    </mxGeometry>
                </mxCell>
                <mxCell id="84" value="" style="endArrow=block;html=1;fontColor=#000099;exitX=0;exitY=0.5;exitDx=0;exitDy=0;endFill=0;entryX=0.5;entryY=1;entryDx=0;entryDy=0;endSize=8;arcSize=0;edgeStyle=orthogonalEdgeStyle;" parent="1" source="80" target="48" edge="1">
                    <mxGeometry width="50" height="50" relative="1" as="geometry">
                        <mxPoint x="710" y="445" as="sourcePoint"/>
                        <mxPoint x="657.5" y="390" as="targetPoint"/>
                    </mxGeometry>
                </mxCell>
                <mxCell id="85" value="" style="endArrow=block;html=1;fontColor=#000099;exitX=0;exitY=0.5;exitDx=0;exitDy=0;endFill=0;endSize=8;arcSize=0;edgeStyle=orthogonalEdgeStyle;entryX=0.5;entryY=1;entryDx=0;entryDy=0;" parent="1" source="86" target="48" edge="1">
                    <mxGeometry width="50" height="50" relative="1" as="geometry">
                        <mxPoint x="710" y="585" as="sourcePoint"/>
                        <mxPoint x="560" y="380" as="targetPoint"/>
                    </mxGeometry>
                </mxCell>
                <mxCell id="86" value="usage-o:Cell" style="rounded=0;whiteSpace=wrap;html=1;snapToPoint=1;points=[[0.1,0],[0.2,0],[0.3,0],[0.4,0],[0.5,0],[0.6,0],[0.7,0],[0.8,0],[0.9,0],[0,0.1],[0,0.3],[0,0.5],[0,0.7],[0,0.9],[0.1,1],[0.2,1],[0.3,1],[0.4,1],[0.5,1],[0.6,1],[0.7,1],[0.8,1],[0.9,1],[1,0.1],[1,0.3],[1,0.5],[1,0.7],[1,0.9]];" parent="1" vertex="1">
                    <mxGeometry x="580" y="475" width="90" height="30" as="geometry"/>
                </mxCell>
                <mxCell id="87" value="&lt;u&gt;usage-o:CO2Scope2Emissions&lt;/u&gt;" style="rounded=0;whiteSpace=wrap;html=1;snapToPoint=1;points=[[0.1,0],[0.2,0],[0.3,0],[0.4,0],[0.5,0],[0.6,0],[0.7,0],[0.8,0],[0.9,0],[0,0.1],[0,0.3],[0,0.5],[0,0.7],[0,0.9],[0.1,1],[0.2,1],[0.3,1],[0.4,1],[0.5,1],[0.6,1],[0.7,1],[0.8,1],[0.9,1],[1,0.1],[1,0.3],[1,0.5],[1,0.7],[1,0.9]];" vertex="1" parent="1">
                    <mxGeometry x="80" y="750" width="180" height="30" as="geometry"/>
                </mxCell>
                <mxCell id="88" value="&lt;u&gt;usage-o:CH4Scope2Emissions&lt;/u&gt;" style="rounded=0;whiteSpace=wrap;html=1;snapToPoint=1;points=[[0.1,0],[0.2,0],[0.3,0],[0.4,0],[0.5,0],[0.6,0],[0.7,0],[0.8,0],[0.9,0],[0,0.1],[0,0.3],[0,0.5],[0,0.7],[0,0.9],[0.1,1],[0.2,1],[0.3,1],[0.4,1],[0.5,1],[0.6,1],[0.7,1],[0.8,1],[0.9,1],[1,0.1],[1,0.3],[1,0.5],[1,0.7],[1,0.9]];" vertex="1" parent="1">
                    <mxGeometry x="80" y="800" width="180" height="30" as="geometry"/>
                </mxCell>
                <mxCell id="89" value="&lt;u&gt;usage-o:N2OScope2Emissions&lt;/u&gt;" style="rounded=0;whiteSpace=wrap;html=1;snapToPoint=1;points=[[0.1,0],[0.2,0],[0.3,0],[0.4,0],[0.5,0],[0.6,0],[0.7,0],[0.8,0],[0.9,0],[0,0.1],[0,0.3],[0,0.5],[0,0.7],[0,0.9],[0.1,1],[0.2,1],[0.3,1],[0.4,1],[0.5,1],[0.6,1],[0.7,1],[0.8,1],[0.9,1],[1,0.1],[1,0.3],[1,0.5],[1,0.7],[1,0.9]];" vertex="1" parent="1">
                    <mxGeometry x="80" y="850" width="180" height="30" as="geometry"/>
                </mxCell>
                <mxCell id="90" value="" style="endArrow=open;html=1;fontColor=#000099;endFill=0;dashed=1;endSize=8;exitX=0;exitY=0.5;exitDx=0;exitDy=0;edgeStyle=orthogonalEdgeStyle;rounded=0;entryX=0.1;entryY=1;entryDx=0;entryDy=0;" edge="1" parent="1" source="87" target="49">
                    <mxGeometry width="50" height="50" relative="1" as="geometry">
                        <mxPoint x="90" y="725" as="sourcePoint"/>
                        <mxPoint x="59" y="560" as="targetPoint"/>
                    </mxGeometry>
                </mxCell>
                <mxCell id="91" value="" style="endArrow=open;html=1;fontColor=#000099;endFill=0;dashed=1;endSize=8;exitX=0;exitY=0.5;exitDx=0;exitDy=0;edgeStyle=orthogonalEdgeStyle;rounded=0;entryX=0.1;entryY=1;entryDx=0;entryDy=0;" edge="1" parent="1" source="88" target="49">
                    <mxGeometry width="50" height="50" relative="1" as="geometry">
                        <mxPoint x="100" y="735" as="sourcePoint"/>
                        <mxPoint x="69" y="570" as="targetPoint"/>
                    </mxGeometry>
                </mxCell>
                <mxCell id="92" value="" style="endArrow=open;html=1;fontColor=#000099;endFill=0;dashed=1;endSize=8;exitX=0;exitY=0.5;exitDx=0;exitDy=0;edgeStyle=orthogonalEdgeStyle;rounded=0;entryX=0.1;entryY=1;entryDx=0;entryDy=0;" edge="1" parent="1" source="89" target="49">
                    <mxGeometry width="50" height="50" relative="1" as="geometry">
                        <mxPoint x="110" y="745" as="sourcePoint"/>
                        <mxPoint x="79" y="580" as="targetPoint"/>
                    </mxGeometry>
                </mxCell>
            </root>
        </mxGraphModel>
    </diagram>
</mxfile>